<svg width="252" height="265" viewBox="0 0 252 265" fill="none" xmlns="http://www.w3.org/2000/svg">
<path d="M221.9 258C221.9 251.1 219.95 245.4 216.05 240.9C212.15 236.1 207.05 233.7 200.75 233.7C194.75 233.7 188.45 236.25 181.85 241.35C175.55 246.45 168.05 251.7 159.35 257.1C150.95 262.2 140.75 264.75 128.75 264.75C87.95 264.75 56.3 254.25 33.8 233.25C11.6 212.25 0.500001 180 0.500001 136.5C0.500001 45.6 42.95 0.149994 127.85 0.149994C143.15 0.149994 158.75 3.89999 174.65 11.4C190.85 18.9 200.75 22.65 204.35 22.65C207.95 22.65 210.95 20.85 213.35 17.25C215.75 13.35 216.95 9.59999 216.95 6H225.5V97.35H216.5C216.5 74.55 207.5 54.15 189.5 36.15C171.8 18.15 151.25 9.14999 127.85 9.14999C109.85 9.14999 96.2 18.9 86.9 38.4C77.6 57.6 72.95 89.55 72.95 134.25C72.95 178.65 77.6 210 86.9 228.3C96.5 246.6 110.45 255.75 128.75 255.75C157.55 255.75 171.95 230.1 171.95 178.8V145.5H143.6V136.5H251.6V145.5H230.45V258H221.9Z" fill="#E9E9EB"/>
</svg>
