<svg width="55" height="55" viewBox="0 0 55 55" fill="none" xmlns="http://www.w3.org/2000/svg">
<path d="M39.0235 0H15.9766C7.16708 0 0 7.16708 0 15.9766V39.0234C0 47.8329 7.16708 55 15.9766 55H39.0234C47.8329 55 55 47.8329 55 39.0235V15.9766C55 7.16708 47.8329 0 39.0235 0ZM50.7031 39.0234C50.7031 45.4636 45.4636 50.7031 39.0235 50.7031H15.9766C9.53638 50.7031 4.29688 45.4636 4.29688 39.0235V15.9766C4.29688 9.53638 9.53638 4.29688 15.9766 4.29688H39.0234C45.4636 4.29688 50.7031 9.53638 50.7031 15.9766V39.0234Z" fill="white"/>
<path d="M27.5 12.6758C19.3258 12.6758 12.6758 19.3258 12.6758 27.5C12.6758 35.6742 19.3258 42.3242 27.5 42.3242C35.6742 42.3242 42.3242 35.6742 42.3242 27.5C42.3242 19.3258 35.6742 12.6758 27.5 12.6758ZM27.5 38.0273C21.6952 38.0273 16.9727 33.3048 16.9727 27.5C16.9727 21.6952 21.6952 16.9727 27.5 16.9727C33.3048 16.9727 38.0273 21.6952 38.0273 27.5C38.0273 33.3048 33.3048 38.0273 27.5 38.0273Z" fill="white"/>
<path d="M42.5391 14.6094C43.7256 14.6094 44.6875 13.6475 44.6875 12.4609C44.6875 11.2744 43.7256 10.3125 42.5391 10.3125C41.3525 10.3125 40.3906 11.2744 40.3906 12.4609C40.3906 13.6475 41.3525 14.6094 42.5391 14.6094Z" fill="white"/>
</svg>
