<svg width="60" height="60" viewBox="0 0 60 60" fill="none" xmlns="http://www.w3.org/2000/svg">
<g clip-path="url(#clip0)">
<path d="M58.7638 15.597C58.0721 13.0267 56.0456 11.0006 53.4757 10.3085C48.7805 9.02353 29.9994 9.02353 29.9994 9.02353C29.9994 9.02353 11.2188 9.02353 6.52356 10.2595C4.00313 10.9512 1.92718 13.0271 1.2355 15.597C0 20.2918 0 30.0284 0 30.0284C0 30.0284 0 39.8139 1.2355 44.4598C1.92763 47.0296 3.95369 49.0562 6.52402 49.7483C11.2683 51.0332 29.9999 51.0332 29.9999 51.0332C29.9999 51.0332 48.7805 51.0332 53.4757 49.7973C56.0461 49.1056 58.0721 47.0791 58.7642 44.5092C59.9997 39.8139 59.9997 30.0778 59.9997 30.0778C59.9997 30.0778 60.0492 20.2918 58.7638 15.597Z" fill="white"/>
<path d="M24.0197 39.0235L39.6372 30.0284L24.0197 21.0334V39.0235Z" fill="black"/>
</g>
<defs>
<clipPath id="clip0">
<rect width="60" height="60" fill="white"/>
</clipPath>
</defs>
</svg>
